<svg xmlns="http://www.w3.org/2000/svg" viewBox="0 0 512 512" width="1em" height="1em" style="flex:none;line-height:1" fill="none" role="img" aria-labelledby="title desc">
  <title id="title">Atius</title>
  <desc id="desc">White letter A with a light gray letter C on adaptive dark background.</desc>
  <rect width="512" height="512" rx="112" fill="#000000"/>
  <rect width="496" height="496" x="8" y="8" rx="104" stroke="rgba(255,255,255,0.12)" stroke-width="8"/>
  <path d="M52 450 256 49l204 401H360L256 219 152 450Z" fill="#FFFFFF"/>
  <!-- Borda externa preta grossa do C para separacao e destaque -->
  <path d="M296 300c-17-25-45-40-76-40-49 0-89 40-89 90s40 90 89 90c31 0 59-15 76-40h-52c-7 4-15 6-24 6-31 0-56-25-56-56s25-56 56-56c9 0 17 2 24 6Z" fill="none" stroke="#000000" stroke-width="24" stroke-linejoin="round"/>
  <!-- Preenchimento do C em cinza claro -->
  <path d="M296 300c-17-25-45-40-76-40-49 0-89 40-89 90s40 90 89 90c31 0 59-15 76-40h-52c-7 4-15 6-24 6-31 0-56-25-56-56s25-56 56-56c9 0 17 2 24 6Z" fill="#D1D5DB"/>
  <path d="M190 396h131v7H190Z" fill="#D1D5DB"/>
</svg>
